{"title":"Teen Wolf Season 4 EP7 Weaponized WEB-DL","uid":10707418,"size":307530927,"categoryP":"video","categoryS":"tv_shows","magnet":"?xt=urn:btih:59b60ba08a3d59f9cfbe3d557ec480d5b7edd012&amp;dn=Teen+Wolf+Season+4+EP7+Weaponized+WEB-DL&amp;tr=udp%3A%2F%2Ftracker.openbittorrent.com%3A80&amp;tr=udp%3A%2F%2Fopen.demonii.com%3A1337&amp;tr=udp%3A%2F%2Ftracker.coppersurfer.tk%3A6969&amp;tr=udp%3A%2F%2Fexodus.desync.com%3A6969","seeders":4,"leechers":0,"uploader":"jmanwf","files":2,"time":1407309619,"description":"A mysterious outbreak overtakes the school\n\n\nFormat : MPEG-4\nFormat profile : Base Media / Version 2\nCodec ID : mp42\nFile size : 293 MiB\nDuration : 42mn 47s\nOverall bit rate mode : Variable\nOverall bit rate : 958 Kbps\nEncoded date : UTC 2014-08-05 21:25:28\nTagged date : UTC 2014-08-05 21:48:50\nWriting application : HandBrake 0.9.9 2013052900\n\nVideo\nID : 1\nFormat : AVC\nFormat/Info : Advanced Video Codec\nFormat profile : &lt;a class=&quot;__cf_email__&quot; href=&quot;/cdn-cgi/l/email-protection&quot; data-cfemail=&quot;571a363e39171b637967&quot;&gt;[email&amp;#160;protected]&lt;/a&gt;&lt;script cf-hash='f9e31' type=&quot;text/javascript&quot;&gt;\n/* &lt;![CDATA[ */!function(){try{var t=&quot;currentScript&quot;in document?document.currentScript:function(){for(var t=document.getElementsByTagName(&quot;script&quot;),e=t.length;e--;)if(t[e].getAttribute(&quot;cf-hash&quot;))return t[e]}();if(t&amp;&amp;t.previousSibling){var e,r,n,i,c=t.previousSibling,a=c.getAttribute(&quot;data-cfemail&quot;);if(a){for(e=&quot;&quot;,r=parseInt(a.substr(0,2),16),n=2;a.length-n;n+=2)i=parseInt(a.substr(n,2),16)^r,e+=String.fromCharCode(i);e=document.createTextNode(e),c.parentNode.replaceChild(e,c)}}}catch(u){}}();/* ]]&gt; */&lt;/script&gt;\nFormat settings, CABAC : Yes\nFormat settings, ReFrames : 4 frames\nCodec ID : avc1\nCodec ID/Info : Advanced Video Coding\nDuration : 42mn 47s\nBit rate : 793 Kbps\nWidth : 852 pixels\nHeight : 480 pixels\nDisplay aspect ratio : 16:9\nFrame rate mode : Variable\nFrame rate : 23.976 fps\nMinimum frame rate : 11.987 fps\nMaximum frame rate : 23.981 fps\nColor space : YUV\nChroma subsampling : 4:2:0\nBit depth : 8 bits\nScan type : Progressive\nBits/(Pixel*Frame) : 0.081\nStream size : 243 MiB (83%)\nEncoded date : UTC 2014-08-05 21:25:28\nTagged date : UTC 2014-08-05 21:48:50\nColor primaries : BT.709\nTransfer characteristics : BT.709\nMatrix coefficients : BT.709\n\nAudio\nID : 2\nFormat : AAC\nFormat/Info : Advanced Audio Codec\nFormat profile : LC\nCodec ID : 40\nDuration : 42mn 46s\nBit rate mode : Variable\nBit rate : 160 Kbps\nMaximum bit rate : 298 Kbps\nChannel(s) : 2 channels\nChannel positions : Front: L R\nSampling rate : 48.0 KHz\nCompression mode : Lossy\nStream size : 48.9 MiB (17%)\nLanguage : English\nEncoded date : UTC 2014-08-05 21:25:28\nTagged date : UTC 2014-08-05 21:48:49","torrent":{"xt":"urn:btih:59b60ba08a3d59f9cfbe3d557ec480d5b7edd012","amp;dn":"Teen+Wolf+Season+4+EP7+Weaponized+WEB-DL","amp;tr":["udp%3A%2F%2Ftracker.openbittorrent.com%3A80","udp%3A%2F%2Fopen.demonii.com%3A1337","udp%3A%2F%2Ftracker.coppersurfer.tk%3A6969","udp%3A%2F%2Fexodus.desync.com%3A6969"],"infoHash":"59b60ba08a3d59f9cfbe3d557ec480d5b7edd012","infoHashBuffer":{"type":"Buffer","data":[89,182,11,160,138,61,89,249,207,190,61,85,126,196,128,213,183,237,208,18]},"announce":[],"urlList":[]}}